<?xml version="1.0" encoding="utf-8"?>
<!-- Generator: Adobe Illustrator 16.0.4, SVG Export Plug-In . SVG Version: 6.00 Build 0)  -->
<!DOCTYPE svg PUBLIC "-//W3C//DTD SVG 1.1//EN" "http://www.w3.org/Graphics/SVG/1.1/DTD/svg11.dtd">
<svg version="1.1" id="Layer_1" xmlns="http://www.w3.org/2000/svg" xmlns:xlink="http://www.w3.org/1999/xlink" x="0px" y="0px"
	 width="134.993px" height="149.992px" viewBox="0 0 134.993 149.992" enable-background="new 0 0 134.993 149.992"
	 xml:space="preserve">
<g>
	<g id="Captions">
		<path fill="#93663A" d="M103.521,69.975c0-0.648,0.481-1.418,0.946-2.163c0.589-0.938,1.193-1.907,1.063-2.91
			c-0.135-1.033-0.984-1.826-1.806-2.593c-0.631-0.588-1.281-1.195-1.441-1.796c-0.166-0.618,0.099-1.481,0.354-2.316
			c0.324-1.062,0.66-2.163,0.271-3.104c-0.396-0.957-1.42-1.5-2.409-2.024c-0.764-0.405-1.554-0.824-1.867-1.367
			c-0.317-0.549-0.288-1.447-0.258-2.316c0.038-1.114,0.077-2.268-0.548-3.079c-0.628-0.816-1.754-1.076-2.842-1.326
			c-0.847-0.195-1.719-0.396-2.166-0.843c-0.447-0.447-0.648-1.322-0.844-2.168c-0.25-1.088-0.511-2.213-1.326-2.841
			c-0.649-0.499-1.515-0.566-2.274-0.566c-0.265,0-0.535,0.009-0.806,0.019c-0.26,0.01-0.521,0.019-0.773,0.019
			c-0.497,0-1.122-0.031-1.544-0.275c-0.543-0.312-0.962-1.104-1.367-1.868c-0.523-0.988-1.066-2.013-2.022-2.408
			c-0.845-0.351-2.021-0.062-3.105,0.271c-0.845,0.258-1.738,0.507-2.316,0.354c-0.601-0.159-1.206-0.812-1.793-1.439
			c-0.769-0.822-1.562-1.672-2.596-1.808c-0.982-0.123-1.974,0.478-2.91,1.062c-0.744,0.466-1.515,0.947-2.162,0.947
			c-0.648,0-1.419-0.481-2.164-0.947c-0.938-0.586-1.912-1.19-2.911-1.062c-1.032,0.136-1.825,0.984-2.593,1.807
			c-0.588,0.63-1.195,1.28-1.795,1.44c-0.574,0.153-1.473-0.096-2.316-0.354c-1.086-0.332-2.263-0.62-3.105-0.271
			c-0.957,0.396-1.499,1.42-2.023,2.408c-0.405,0.766-0.824,1.556-1.367,1.868c-0.422,0.244-1.047,0.275-1.545,0.275
			c-0.254,0-0.514-0.009-0.772-0.019c-0.271-0.01-0.542-0.019-0.806-0.019c-0.761,0-1.625,0.067-2.274,0.566
			c-0.817,0.628-1.076,1.754-1.327,2.843c-0.194,0.845-0.396,1.72-0.842,2.166c-0.447,0.445-1.321,0.646-2.167,0.843
			c-1.089,0.25-2.214,0.51-2.843,1.326c-0.623,0.812-0.584,1.964-0.547,3.077c0.029,0.87,0.061,1.771-0.259,2.319
			c-0.313,0.543-1.104,0.962-1.868,1.367c-0.988,0.525-2.012,1.068-2.408,2.023c-0.391,0.941-0.055,2.042,0.271,3.104
			c0.255,0.835,0.519,1.698,0.354,2.316c-0.16,0.6-0.812,1.208-1.441,1.796c-0.821,0.767-1.671,1.56-1.806,2.593
			c-0.131,1.003,0.477,1.973,1.062,2.91c0.466,0.745,0.947,1.515,0.947,2.163c0,0.647-0.481,1.418-0.947,2.164
			c-0.586,0.938-1.193,1.908-1.062,2.911c0.135,1.032,0.984,1.825,1.807,2.593c0.629,0.588,1.28,1.195,1.44,1.795
			c0.165,0.618-0.099,1.482-0.354,2.317c-0.325,1.062-0.661,2.162-0.271,3.104c0.396,0.956,1.42,1.498,2.408,2.023
			c0.765,0.404,1.555,0.823,1.869,1.367c0.318,0.55,0.287,1.448,0.258,2.319c-0.037,1.113-0.076,2.266,0.547,3.077
			c0.629,0.816,1.754,1.076,2.843,1.327c0.846,0.195,1.72,0.396,2.167,0.843c0.446,0.446,0.647,1.32,0.842,2.166
			c0.251,1.089,0.51,2.214,1.326,2.842c0.649,0.499,1.514,0.566,2.273,0.566c0.265,0,0.535-0.009,0.807-0.02
			c0.26-0.009,0.52-0.018,0.773-0.018c0.498,0,1.123,0.031,1.545,0.275c0.543,0.312,0.963,1.104,1.368,1.868
			c0.524,0.989,1.067,2.013,2.022,2.408c0.845,0.352,2.021,0.062,3.104-0.271c0.845-0.257,1.742-0.509,2.317-0.354
			c0.6,0.16,1.207,0.812,1.795,1.44c0.768,0.822,1.561,1.672,2.594,1.807c0.982,0.126,1.975-0.478,2.91-1.062
			c0.746-0.467,1.516-0.947,2.164-0.947c0.647,0,1.417,0.48,2.162,0.947c0.85,0.53,1.728,1.081,2.633,1.081
			c0.094,0,0.186-0.007,0.277-0.019c1.034-0.135,1.827-0.984,2.596-1.808c0.587-0.629,1.192-1.28,1.793-1.439
			c0.575-0.156,1.474,0.097,2.316,0.354c1.085,0.33,2.26,0.619,3.106,0.271c0.955-0.396,1.498-1.421,2.022-2.41
			c0.406-0.764,0.824-1.554,1.367-1.866c0.422-0.244,1.046-0.275,1.543-0.275c0.254,0,0.515,0.009,0.774,0.018
			c0.271,0.011,0.542,0.02,0.808,0.02c0.76,0,1.623-0.067,2.273-0.566c0.813-0.628,1.074-1.752,1.324-2.84
			c0.194-0.847,0.396-1.722,0.844-2.17c0.446-0.446,1.32-0.647,2.166-0.842c1.09-0.251,2.215-0.51,2.842-1.326
			c0.625-0.812,0.586-1.965,0.548-3.079c-0.03-0.869-0.061-1.769,0.259-2.318c0.312-0.543,1.104-0.963,1.869-1.368
			c0.988-0.524,2.01-1.067,2.406-2.021c0.391-0.942,0.055-2.042-0.27-3.104c-0.256-0.835-0.521-1.699-0.354-2.317
			c0.16-0.6,0.811-1.207,1.441-1.795c0.82-0.767,1.671-1.561,1.806-2.593c0.13-1.003-0.476-1.974-1.063-2.911
			C104.003,71.393,103.521,70.623,103.521,69.975z M99.987,69.975c0,18.205-14.81,33.014-33.012,33.014
			c-18.204,0-33.014-14.81-33.014-33.014c0-18.203,14.81-33.013,33.014-33.013C85.179,36.962,99.987,51.771,99.987,69.975z"/>
		<path fill="#93663A" d="M66.632,76.036l-0.471,1.308c-1.896,5.264-1.896,13.827,0,19.091l0.471,1.307l0.471-1.308
			c1.894-5.263,1.894-13.826,0-19.089L66.632,76.036z"/>
		<path fill="#93663A" d="M66.632,42.21l-0.471,1.308c-1.896,5.264-1.896,13.827,0,19.091l0.471,1.307l0.471-1.308
			c1.894-5.263,1.894-13.826,0-19.09L66.632,42.21z"/>
		<path fill="#93663A" d="M72.174,74.852l-1.257-0.592l0.592,1.257c2.381,5.062,8.437,11.117,13.498,13.498l1.258,0.591
			l-0.593-1.256C83.29,83.289,77.234,77.234,72.174,74.852z"/>
		<path fill="#93663A" d="M48.257,50.935l-1.256-0.592l0.59,1.257c2.379,5.06,8.436,11.115,13.5,13.499l1.258,0.593l-0.594-1.258
			C59.372,59.372,53.315,53.316,48.257,50.935z"/>
		<path fill="#93663A" d="M73.999,69.504l-1.307,0.471l1.307,0.471c2.561,0.922,5.949,1.43,9.545,1.43
			c3.597,0,6.986-0.508,9.545-1.43l1.308-0.471l-1.308-0.471c-2.559-0.922-5.948-1.429-9.545-1.429
			C79.948,68.075,76.56,68.583,73.999,69.504z"/>
		<path fill="#93663A" d="M59.266,70.445l1.307-0.471l-1.307-0.471c-2.56-0.922-5.949-1.429-9.545-1.429
			c-3.596,0-6.986,0.507-9.547,1.429l-1.308,0.471l1.308,0.471c2.561,0.922,5.951,1.43,9.547,1.43
			C53.316,71.875,56.706,71.367,59.266,70.445z"/>
		<path fill="#93663A" d="M85.673,51.6l0.592-1.257l-1.258,0.592c-5.063,2.384-11.118,8.439-13.498,13.499l-0.591,1.256l1.256-0.591
			C77.234,62.718,83.29,56.662,85.673,51.6z"/>
		<path fill="#93663A" d="M47.592,88.35L47,89.607l1.257-0.592c5.058-2.379,11.113-8.436,13.498-13.498l0.593-1.257l-1.257,0.592
			C56.03,77.233,49.977,83.289,47.592,88.35z"/>
	</g>
	<g id="Your_Icon">
	</g>
</g>
<circle fill="none" cx="68.429" cy="69.98" r="45.615"/>
<text transform="matrix(0.4606 -0.8876 0.8876 0.4606 23.2822 57.9429)"><tspan x="0" y="0" font-family="'SantaFeLetPlain'" font-size="35">E</tspan><tspan x="22.316" y="1.184" font-family="'SantaFeLetPlain'" font-size="35" rotate="23.368">a</tspan><tspan x="36.345" y="7.864" font-family="'SantaFeLetPlain'" font-size="35" rotate="41.892">s</tspan><tspan x="46.536" y="17.455" font-family="'SantaFeLetPlain'" font-size="35" rotate="59.984">y</tspan><tspan x="53.502" y="30.986" font-family="'SantaFeLetPlain'" font-size="35" rotate="76.229"> </tspan><tspan x="57.097" y="40.752" font-family="'SantaFeLetPlain'" font-size="35" rotate="99.127">A</tspan><tspan x="51.049" y="66.548" font-family="'SantaFeLetPlain'" font-size="35" rotate="124.177">s</tspan></text>
<circle fill="none" cx="62.247" cy="81.247" r="59.247"/>
<text transform="matrix(0.8452 0.5344 -0.5344 0.8452 18.0332 123.4077)"><tspan x="0" y="0" font-family="'SantaFeLetPlain'" font-size="45">P</tspan><tspan x="45.848" y="-8.618" font-family="'SantaFeLetPlain'" font-size="45" rotate="-35.351">i</tspan><tspan x="62.106" y="-22.965" font-family="'SantaFeLetPlain'" font-size="45" rotate="-58.573">e</tspan></text>
</svg>
