<svg xmlns="http://www.w3.org/2000/svg" xmlns:xlink="http://www.w3.org/1999/xlink" version="1.1" x="0px" y="0px" width="100px" height="100px" viewBox="0 0 100 100" enable-background="new 0 0 100 100" xml:space="preserve">
<g id="Captions">
	<path d="M85.561,50.328c0-0.648,0.482-1.418,0.947-2.163c0.588-0.938,1.193-1.907,1.063-2.91c-0.135-1.033-0.984-1.826-1.806-2.593   c-0.63-0.588-1.281-1.195-1.441-1.796c-0.166-0.618,0.099-1.481,0.354-2.316c0.324-1.063,0.66-2.163,0.27-3.105   c-0.396-0.957-1.42-1.5-2.409-2.024c-0.764-0.405-1.554-0.824-1.867-1.367c-0.318-0.549-0.288-1.448-0.258-2.317   c0.038-1.114,0.077-2.267-0.548-3.079c-0.628-0.816-1.754-1.076-2.842-1.326c-0.846-0.195-1.719-0.396-2.166-0.843   c-0.447-0.447-0.648-1.322-0.844-2.168c-0.25-1.088-0.51-2.213-1.326-2.841c-0.649-0.499-1.514-0.566-2.274-0.566   c-0.265,0-0.535,0.009-0.806,0.019c-0.26,0.009-0.52,0.018-0.773,0.018c-0.497,0-1.122-0.031-1.544-0.275   c-0.543-0.313-0.962-1.104-1.367-1.868c-0.524-0.989-1.067-2.013-2.023-2.409c-0.845-0.35-2.021-0.062-3.105,0.271   c-0.845,0.258-1.739,0.507-2.317,0.353c-0.6-0.159-1.206-0.811-1.793-1.439c-0.768-0.822-1.561-1.672-2.595-1.808   c-0.983-0.123-1.974,0.478-2.911,1.063c-0.744,0.466-1.515,0.947-2.162,0.947c-0.648,0-1.419-0.481-2.164-0.947   c-0.938-0.586-1.912-1.191-2.911-1.063c-1.032,0.136-1.825,0.985-2.593,1.807c-0.588,0.63-1.195,1.28-1.795,1.44   c-0.574,0.154-1.473-0.095-2.316-0.353c-1.086-0.332-2.263-0.62-3.105-0.271c-0.957,0.396-1.499,1.42-2.023,2.409   c-0.405,0.765-0.824,1.555-1.367,1.868c-0.422,0.244-1.047,0.275-1.545,0.275c-0.254,0-0.514-0.009-0.772-0.018   c-0.271-0.01-0.542-0.019-0.806-0.019c-0.761,0-1.625,0.067-2.274,0.566c-0.817,0.628-1.076,1.754-1.327,2.843   c-0.194,0.845-0.396,1.72-0.842,2.166c-0.447,0.446-1.321,0.647-2.167,0.843c-1.089,0.25-2.214,0.51-2.843,1.326   c-0.623,0.812-0.584,1.964-0.547,3.077c0.029,0.87,0.061,1.771-0.259,2.32c-0.313,0.543-1.104,0.962-1.868,1.367   c-0.988,0.525-2.012,1.068-2.408,2.023c-0.391,0.942-0.055,2.042,0.271,3.105c0.255,0.835,0.519,1.698,0.354,2.316   c-0.16,0.6-0.812,1.208-1.441,1.796c-0.821,0.767-1.671,1.56-1.806,2.593c-0.131,1.003,0.477,1.973,1.062,2.91   c0.466,0.745,0.947,1.515,0.947,2.163s-0.481,1.418-0.947,2.163c-0.586,0.938-1.193,1.908-1.062,2.911   c0.135,1.033,0.984,1.826,1.807,2.593c0.629,0.588,1.28,1.195,1.44,1.795c0.165,0.618-0.099,1.482-0.354,2.317   c-0.325,1.063-0.661,2.163-0.271,3.105c0.396,0.956,1.42,1.498,2.408,2.023c0.765,0.405,1.555,0.824,1.869,1.368   c0.318,0.549,0.287,1.448,0.258,2.319c-0.037,1.113-0.076,2.265,0.547,3.077c0.629,0.816,1.754,1.076,2.843,1.327   c0.846,0.195,1.72,0.396,2.167,0.843c0.446,0.446,0.647,1.32,0.842,2.166c0.251,1.089,0.51,2.214,1.326,2.842   c0.649,0.499,1.514,0.566,2.273,0.566c0.265,0,0.535-0.009,0.807-0.019c0.26-0.009,0.52-0.018,0.773-0.018   c0.498,0,1.123,0.031,1.545,0.275c0.543,0.313,0.963,1.104,1.368,1.869c0.524,0.989,1.067,2.012,2.022,2.408   c0.845,0.351,2.021,0.062,3.104-0.271c0.845-0.257,1.742-0.509,2.317-0.354c0.6,0.16,1.207,0.811,1.795,1.44   c0.768,0.822,1.561,1.672,2.594,1.807c0.982,0.126,1.975-0.478,2.91-1.063c0.746-0.466,1.516-0.947,2.164-0.947   c0.647,0,1.417,0.481,2.162,0.947c0.85,0.531,1.728,1.081,2.633,1.081c0.094,0,0.186-0.006,0.278-0.018   c1.034-0.135,1.827-0.985,2.595-1.808c0.587-0.629,1.193-1.28,1.793-1.439c0.575-0.156,1.474,0.096,2.317,0.354   c1.085,0.33,2.259,0.619,3.106,0.271c0.955-0.396,1.498-1.421,2.023-2.41c0.406-0.764,0.824-1.554,1.367-1.867   c0.422-0.244,1.046-0.275,1.543-0.275c0.254,0,0.514,0.009,0.774,0.018c0.271,0.01,0.542,0.019,0.808,0.019   c0.76,0,1.623-0.067,2.273-0.566c0.814-0.628,1.074-1.752,1.324-2.84c0.195-0.847,0.396-1.722,0.844-2.17   c0.446-0.446,1.32-0.647,2.166-0.842c1.09-0.251,2.215-0.51,2.842-1.326c0.625-0.812,0.586-1.965,0.548-3.079   c-0.03-0.869-0.061-1.769,0.259-2.318c0.312-0.543,1.104-0.963,1.869-1.369c0.988-0.524,2.01-1.067,2.406-2.021   c0.391-0.942,0.055-2.042-0.27-3.105c-0.255-0.835-0.52-1.699-0.354-2.317c0.16-0.6,0.811-1.207,1.441-1.795   c0.821-0.767,1.671-1.56,1.806-2.593c0.13-1.003-0.476-1.973-1.063-2.911C86.043,51.746,85.561,50.977,85.561,50.328z    M82.027,50.328c0,18.204-14.809,33.014-33.012,33.014c-18.204,0-33.014-14.81-33.014-33.014c0-18.203,14.81-33.013,33.014-33.013   C67.219,17.315,82.027,32.125,82.027,50.328z"/>
	<path d="M48.672,56.389l-0.471,1.307c-1.896,5.264-1.896,13.827,0,19.091l0.471,1.307l0.471-1.308   c1.894-5.263,1.894-13.826,0-19.089L48.672,56.389z"/>
	<path d="M48.672,22.563l-0.471,1.308c-1.896,5.264-1.896,13.827,0,19.091l0.471,1.307l0.471-1.308   c1.894-5.263,1.894-13.826,0-19.09L48.672,22.563z"/>
	<path d="M54.214,55.205l-1.257-0.592l0.592,1.257c2.38,5.062,8.436,11.117,13.498,13.498l1.257,0.591l-0.592-1.256   C65.33,63.642,59.274,57.587,54.214,55.205z"/>
	<path d="M30.297,31.288l-1.256-0.592l0.59,1.257c2.379,5.06,8.436,11.115,13.5,13.499l1.258,0.593l-0.594-1.258   C41.411,39.726,35.355,33.67,30.297,31.288z"/>
	<path d="M56.039,49.857l-1.307,0.471l1.307,0.471c2.56,0.922,5.949,1.43,9.545,1.43s6.986-0.508,9.545-1.43l1.307-0.471   l-1.307-0.471c-2.559-0.921-5.949-1.428-9.545-1.428S58.599,48.937,56.039,49.857z"/>
	<path d="M41.305,50.799l1.307-0.471l-1.307-0.471c-2.56-0.921-5.949-1.428-9.545-1.428s-6.986,0.507-9.547,1.428l-1.308,0.471   l1.308,0.471c2.561,0.922,5.951,1.43,9.547,1.43S38.745,51.721,41.305,50.799z"/>
	<path d="M67.713,31.953l0.591-1.257l-1.257,0.592c-5.064,2.384-11.119,8.44-13.498,13.499l-0.591,1.256l1.256-0.591   C59.274,43.071,65.33,37.016,67.713,31.953z"/>
	<path d="M29.632,68.703L29.04,69.96l1.257-0.592c5.058-2.379,11.113-8.435,13.498-13.498l0.593-1.257l-1.257,0.592   C38.07,57.586,32.016,63.642,29.632,68.703z"/>
</g>
<g id="Your_Icon">
</g>
</svg>