<?xml version="1.0" encoding="utf-8"?>
<!-- Generator: Adobe Illustrator 16.0.4, SVG Export Plug-In . SVG Version: 6.00 Build 0)  -->
<!DOCTYPE svg PUBLIC "-//W3C//DTD SVG 1.1//EN" "http://www.w3.org/Graphics/SVG/1.1/DTD/svg11.dtd">
<svg version="1.1" id="Layer_1" xmlns="http://www.w3.org/2000/svg" xmlns:xlink="http://www.w3.org/1999/xlink" x="0px" y="0px"
	 width="84px" height="58.5px" viewBox="3.5 19 84 58.5" enable-background="new 3.5 19 84 58.5" xml:space="preserve">
<g id="Captions">
</g>
<g id="Your_Icon">
	<path d="M40.895,23.926v-0.892c0-1.311-0.429-1.784-1.784-1.784H8.784C7.418,21.25,7,21.713,7,23.034v0.892
		c0,1.383,0.463,1.784,1.784,1.784h30.327C40.449,25.71,40.895,25.281,40.895,23.926z M40.895,33.737v-0.892
		c0-1.311-0.429-1.784-1.784-1.784H8.784C7.418,31.062,7,31.525,7,32.846v0.892c0,1.382,0.463,1.784,1.784,1.784h30.327
		C40.449,35.521,40.895,35.093,40.895,33.737z M40.895,43.549v-0.892c0-1.311-0.429-1.784-1.784-1.784H8.784
		C7.418,40.873,7,41.337,7,42.657v0.892c0,1.382,0.463,1.784,1.784,1.784h30.327C40.449,45.333,40.895,44.905,40.895,43.549z"/>
</g>
</svg>
