<?xml version="1.0" encoding="utf-8"?>
<!-- Generator: Adobe Illustrator 16.0.4, SVG Export Plug-In . SVG Version: 6.00 Build 0)  -->
<!DOCTYPE svg PUBLIC "-//W3C//DTD SVG 1.1//EN" "http://www.w3.org/Graphics/SVG/1.1/DTD/svg11.dtd">
<svg version="1.1" id="Layer_1" xmlns="http://www.w3.org/2000/svg" xmlns:xlink="http://www.w3.org/1999/xlink" x="0px" y="0px"
	 width="100px" height="130.5px" viewBox="0 -30.5 100 130.5" enable-background="new 0 -30.5 100 130.5" xml:space="preserve">
<g id="Captions">
</g>
<g id="Your_Icon">
	<g>
		<path fill="#D35400" d="M49.648,72.36c-3.672,0-7.248-0.678-10.632-2.015l-1.252-0.495l11.91-29.998L61.576,69.83l-1.25,0.495
			C56.926,71.675,53.33,72.36,49.648,72.36z M41.266,68.312c2.692,0.902,5.505,1.362,8.383,1.362c2.891,0,5.721-0.462,8.428-1.383
			l-8.403-21.157L41.266,68.312z"/>
	</g>
	<g>
		<path fill="#D35400" d="M64.725,68.529L52.458,38.677l29.386,13.297l-0.555,1.227c-1.513,3.334-3.621,6.32-6.272,8.883
			c-2.642,2.55-5.683,4.544-9.048,5.936L64.725,68.529z M57.514,43.916l8.663,21.075c2.566-1.217,4.904-2.842,6.976-4.841
			c2.08-2.011,3.789-4.309,5.104-6.85L57.514,43.916z"/>
	</g>
	<g>
		<path fill="#D35400" d="M34.618,68.529l-1.244-0.511c-3.364-1.391-6.409-3.385-9.048-5.935c-2.651-2.562-4.763-5.55-6.271-8.883
			l-0.556-1.229l29.382-13.296L34.618,68.529z M21.087,53.3c1.313,2.542,3.024,4.84,5.104,6.85c2.067,1.998,4.41,3.625,6.977,4.841
			l8.659-21.076L21.087,53.3z"/>
	</g>
	<g>
		<path fill="#6D3D1D" d="M77.211,33.854c0,4.17-0.925,8.127-2.583,11.675L49.661,33.874l-0.023,0.053l-0.017-0.053L24.605,45.549
			c-1.662-3.551-2.591-7.515-2.591-11.695c0-15.243,12.352-27.602,27.598-27.602C64.855,6.252,77.211,18.611,77.211,33.854z"/>
	</g>
	<g>
		<polygon fill="#CC6600" points="49.661,33.967 49.638,34.017 49.621,33.967 49.613,33.943 49.638,33.955 49.641,33.955 		"/>
	</g>
	<g>
		<polygon fill="#CC6600" points="49.669,33.943 49.661,33.967 49.638,34.017 49.621,33.967 49.638,33.955 49.641,33.955 		"/>
	</g>
</g>
<text transform="matrix(1 0 0 1 2 -2.5)" font-family="'SantaFeLetPlain'" font-size="22">Easy As Pie</text>
</svg>
